# xmcd CD database file
#
# Track frame offsets:
#	150
#	18315
#	40475
#	52463
#	72014
#	84719
#	104403
#	125593
#	154773
#	176898
#
# Disc length: 2635 seconds
#
# Revision: 0
# Processed by: cddbd v1.5.2PL0 Copyright (c) Steve Scherf et al.
# Submitted via: CDex 1.51
#
DISCID=8f0a490a
DTITLE=Doug Brummett - Breakeven
DYEAR=2000
DGENRE=Country
TTITLE0=You're the One
TTITLE1=Down By the River
TTITLE2=Language of Love
TTITLE3=Shadow of the Moon
TTITLE4=Breakeven
TTITLE5=Don't Be Afraid
TTITLE6=This Train
TTITLE7=You
TTITLE8=My Story
TTITLE9=Twin Creek
EXTD=YEAR: 2000
EXTT0=
EXTT1=
EXTT2=
EXTT3=
EXTT4=
EXTT5=
EXTT6=
EXTT7=
EXTT8=
EXTT9=
PLAYORDER=
